<svg version="1.1" id="Layer_1" xmlns="http://www.w3.org/2000/svg" x="0" y="0" viewBox="0 0 95.3 13.1" style="enable-background:new 0 0 95.3 13.1" xml:space="preserve"><style>.st0{fill-rule:evenodd;clip-rule:evenodd;fill:#fff}</style><path id="Fill-1" class="st0" d="M17.3 6.9 17.2 8l-.3 2.7c-.5.1-1.1.2-1.6.2-.6.1-1.2-.1-1.7-.5-.4-.4-.6-.9-.5-1.3 0-1.1.6-1.7 1.9-2 1.3-.2 2.3-.3 2.3-.2zm3.8-5.6C20.3.4 18.8 0 16.5 0c-1.8 0-3.5.3-5.2.9-.1 0-.2.2-.2.3l.3 1.9s0 .1.1.1h.1c.8-.2 1.5-.4 2.3-.5 1.8-.3 2.9-.2 3.4.3.3.3.4.8.3 1.2v.4s-2.3.3-3.7.6c-1.1.1-2.2.5-3.1 1.1-1.4 1-2 2.7-1.6 4.3.3 1.2 1.3 2.7 5 2.7h.3c5.6 0 6.3-1 6.6-3l.3-2.7.4-3.5c.1-1.1-.1-2.1-.7-2.8z"/><path id="Fill-2" class="st0" d="m63.9 5.2.1-.5c0-.7.3-1.3.8-1.7.4-.3.9-.5 1.4-.5.4 0 .9.1 1.2.3.4.3.7.8.7 1.4 0 .3-.2 1.7-.5 4.1v.1c0 .6-.3 1.2-.7 1.7-.4.4-.9.6-1.4.6-.5.1-.9 0-1.3-.2-.4-.5-.7-1-.8-1.5 0-.4.3-2.6.5-3.8zm-4.5 3.2c-.1.7 0 1.4.2 2.1.8 2.2 3.7 2.5 5.4 2.5 3 0 5-.9 6-2.5.3-.5.7-1.9 1.2-5.7v-.1c.1-.7 0-1.4-.1-2C71.4.6 69 .1 67.1 0h-.4c-3 0-5 .9-6 2.5-.9 1.4-1.3 5.9-1.3 5.9z"/><path id="Fill-3" class="st0" d="M59.1.1H57.2c-1 0-1.9.4-2.4 1.3L50.3 7l.1-.3.8-6.3V.3s-.1-.1-.1 0h-3.7c-.1 0-.2.1-.2.2l-1.5 12.3v.1h2c1 0 1.9-.5 2.4-1.3l4.4-5.7-.1.3-.8 6.5v.1l.1.1h3.7c.1 0 .2-.1.2-.2L59.1.4c.1-.2.1-.2 0-.3"/><path id="Fill-4" class="st0" d="M85.7.1h-.1l-3.8.5c-.1 0-.2.1-.2.2L81 5v.2h-3.6l.6-5V.1h-.1l-3.8.5c-.1 0-.2.1-.2.2l-1.5 11.9v.1l.1.1h3.7c.1 0 .2-.1.2-.2l.6-4.8h3.6l-.6 4.8v.1l.1.1h.9c1.7 0 3-.2 3.2-2.2L85.5.3l.2-.2"/><path id="Fill-5" class="st0" d="M46.1.3V.2s-.1-.1-.1 0H32c-.3 0-.5.1-.7.3l-3.9 4.8h-.6l.6-5V.2h-.1l-3.8.5c-.1 0-.2.1-.2.2l-1.5 11.9v.1l.1.1h3.7c.1 0 .2-.1.2-.2l.6-4.8h.6l2.7 4.8c.1.1.2.2.3.2h4c.1 0 .1 0 .1-.1l-3.6-6.1 3-3.5H38l-1.2 9.6v.1l.1.1h3.7c.1 0 .2-.1.2-.2L42 3h3.6c.1 0 .2-.1.2-.2l.3-2.5"/><path id="Fill-7" class="st0" d="M8.7.1H5.2c-.2 0-.5.1-.6.3C4.6.4.3 5.6.2 5.8c-.2.1-.2.4-.1.6l3.4 6c.1.2.3.3.6.3h3.1c.2 0 .3-.1.2-.3L4 6.4 9 .3c0-.1-.1-.2-.3-.2"/><path id="Fill-8" class="st0" d="M86.5 12.8H90c.2 0 .5-.1.6-.3 0 0 4.3-5.2 4.4-5.3.2-.2.2-.5.1-.7l-3.4-6c-.1-.2-.3-.3-.6-.3H88c-.2 0-.3.1-.2.3l3.4 6-5 6.1c.1 0 .1.2.3.2"/></svg>